<mxfile host="app.diagrams.net" agent="Mozilla/5.0 (Windows NT 10.0; Win64; x64) AppleWebKit/537.36 (KHTML, like Gecko) Chrome/128.0.0.0 Safari/537.36 OPR/114.0.0.0" version="25.0.0">
  <diagram id="C5RBs43oDa-KdzZeNtuy" name="Page-1">
    <mxGraphModel dx="1876" dy="1117" grid="1" gridSize="10" guides="1" tooltips="1" connect="1" arrows="1" fold="1" page="1" pageScale="1" pageWidth="827" pageHeight="1169" math="0" shadow="0">
      <root>
        <mxCell id="WIyWlLk6GJQsqaUBKTNV-0" />
        <mxCell id="WIyWlLk6GJQsqaUBKTNV-1" parent="WIyWlLk6GJQsqaUBKTNV-0" />
        <mxCell id="0yK75cyEjAmp3p56e5vH-48" value="" style="shape=folder;fontStyle=1;spacingTop=10;tabWidth=40;tabHeight=14;tabPosition=left;html=1;whiteSpace=wrap;" vertex="1" parent="WIyWlLk6GJQsqaUBKTNV-1">
          <mxGeometry x="39" y="740" width="721" height="550" as="geometry" />
        </mxCell>
        <mxCell id="0yK75cyEjAmp3p56e5vH-22" value="" style="shape=folder;fontStyle=1;spacingTop=10;tabWidth=40;tabHeight=14;tabPosition=left;html=1;whiteSpace=wrap;" vertex="1" parent="WIyWlLk6GJQsqaUBKTNV-1">
          <mxGeometry x="28" y="120" width="721" height="530" as="geometry" />
        </mxCell>
        <mxCell id="0yK75cyEjAmp3p56e5vH-4" value="Booking (Super)" style="swimlane;fontStyle=1;align=center;verticalAlign=top;childLayout=stackLayout;horizontal=1;startSize=26;horizontalStack=0;resizeParent=1;resizeParentMax=0;resizeLast=0;collapsible=1;marginBottom=0;whiteSpace=wrap;html=1;" vertex="1" parent="WIyWlLk6GJQsqaUBKTNV-1">
          <mxGeometry x="60" y="200" width="341" height="150" as="geometry" />
        </mxCell>
        <mxCell id="0yK75cyEjAmp3p56e5vH-5" value="&amp;lt;&amp;lt;get/set&amp;gt;&amp;gt; +STRING: Booking name&lt;div&gt;&amp;lt;&amp;lt;get/set&amp;gt;&amp;gt; -INT: Booking ID&lt;/div&gt;&lt;div&gt;&amp;lt;&amp;lt;get/set&amp;gt;&amp;gt; #STRING: Date&lt;/div&gt;&lt;div&gt;+ BookingStatus BookingStatus&lt;/div&gt;&lt;div&gt;&lt;br&gt;&lt;/div&gt;&lt;div&gt;&lt;br&gt;&lt;/div&gt;" style="text;strokeColor=none;fillColor=none;align=left;verticalAlign=top;spacingLeft=4;spacingRight=4;overflow=hidden;rotatable=0;points=[[0,0.5],[1,0.5]];portConstraint=eastwest;whiteSpace=wrap;html=1;" vertex="1" parent="0yK75cyEjAmp3p56e5vH-4">
          <mxGeometry y="26" width="341" height="64" as="geometry" />
        </mxCell>
        <mxCell id="0yK75cyEjAmp3p56e5vH-6" value="" style="line;strokeWidth=1;fillColor=none;align=left;verticalAlign=middle;spacingTop=-1;spacingLeft=3;spacingRight=3;rotatable=0;labelPosition=right;points=[];portConstraint=eastwest;strokeColor=inherit;" vertex="1" parent="0yK75cyEjAmp3p56e5vH-4">
          <mxGeometry y="90" width="341" height="8" as="geometry" />
        </mxCell>
        <mxCell id="0yK75cyEjAmp3p56e5vH-7" value="+toString()&lt;div&gt;&amp;lt;&amp;lt;constructor&amp;gt;&amp;gt;+Booking(string name, int Booking id, String Date)&lt;/div&gt;" style="text;strokeColor=none;fillColor=none;align=left;verticalAlign=top;spacingLeft=4;spacingRight=4;overflow=hidden;rotatable=0;points=[[0,0.5],[1,0.5]];portConstraint=eastwest;whiteSpace=wrap;html=1;" vertex="1" parent="0yK75cyEjAmp3p56e5vH-4">
          <mxGeometry y="98" width="341" height="52" as="geometry" />
        </mxCell>
        <mxCell id="0yK75cyEjAmp3p56e5vH-8" value="Staff" style="swimlane;fontStyle=1;align=center;verticalAlign=top;childLayout=stackLayout;horizontal=1;startSize=26;horizontalStack=0;resizeParent=1;resizeParentMax=0;resizeLast=0;collapsible=1;marginBottom=0;whiteSpace=wrap;html=1;" vertex="1" parent="WIyWlLk6GJQsqaUBKTNV-1">
          <mxGeometry x="429" y="388" width="300" height="120" as="geometry" />
        </mxCell>
        <mxCell id="0yK75cyEjAmp3p56e5vH-9" value="&amp;lt;&amp;lt;get/set&amp;gt;&amp;gt; #STRING: Staff Name&lt;div&gt;&amp;lt;&amp;lt;get/set&amp;gt;&amp;gt; #INT: Staff ID&lt;/div&gt;" style="text;strokeColor=none;fillColor=none;align=left;verticalAlign=top;spacingLeft=4;spacingRight=4;overflow=hidden;rotatable=0;points=[[0,0.5],[1,0.5]];portConstraint=eastwest;whiteSpace=wrap;html=1;" vertex="1" parent="0yK75cyEjAmp3p56e5vH-8">
          <mxGeometry y="26" width="300" height="44" as="geometry" />
        </mxCell>
        <mxCell id="0yK75cyEjAmp3p56e5vH-10" value="" style="line;strokeWidth=1;fillColor=none;align=left;verticalAlign=middle;spacingTop=-1;spacingLeft=3;spacingRight=3;rotatable=0;labelPosition=right;points=[];portConstraint=eastwest;strokeColor=inherit;" vertex="1" parent="0yK75cyEjAmp3p56e5vH-8">
          <mxGeometry y="70" width="300" height="8" as="geometry" />
        </mxCell>
        <mxCell id="0yK75cyEjAmp3p56e5vH-11" value="+toString()" style="text;strokeColor=none;fillColor=none;align=left;verticalAlign=top;spacingLeft=4;spacingRight=4;overflow=hidden;rotatable=0;points=[[0,0.5],[1,0.5]];portConstraint=eastwest;whiteSpace=wrap;html=1;" vertex="1" parent="0yK75cyEjAmp3p56e5vH-8">
          <mxGeometry y="78" width="300" height="42" as="geometry" />
        </mxCell>
        <mxCell id="0yK75cyEjAmp3p56e5vH-12" value="Branch (Final)" style="swimlane;fontStyle=1;align=center;verticalAlign=top;childLayout=stackLayout;horizontal=1;startSize=26;horizontalStack=0;resizeParent=1;resizeParentMax=0;resizeLast=0;collapsible=1;marginBottom=0;whiteSpace=wrap;html=1;" vertex="1" parent="WIyWlLk6GJQsqaUBKTNV-1">
          <mxGeometry x="200" y="396" width="160" height="60" as="geometry" />
        </mxCell>
        <mxCell id="0yK75cyEjAmp3p56e5vH-13" value="&amp;lt;&amp;lt;get/set&amp;gt;&amp;gt; -INT: Branch ID" style="text;strokeColor=none;fillColor=none;align=left;verticalAlign=top;spacingLeft=4;spacingRight=4;overflow=hidden;rotatable=0;points=[[0,0.5],[1,0.5]];portConstraint=eastwest;whiteSpace=wrap;html=1;" vertex="1" parent="0yK75cyEjAmp3p56e5vH-12">
          <mxGeometry y="26" width="160" height="26" as="geometry" />
        </mxCell>
        <mxCell id="0yK75cyEjAmp3p56e5vH-14" value="" style="line;strokeWidth=1;fillColor=none;align=left;verticalAlign=middle;spacingTop=-1;spacingLeft=3;spacingRight=3;rotatable=0;labelPosition=right;points=[];portConstraint=eastwest;strokeColor=inherit;" vertex="1" parent="0yK75cyEjAmp3p56e5vH-12">
          <mxGeometry y="52" width="160" height="8" as="geometry" />
        </mxCell>
        <mxCell id="0yK75cyEjAmp3p56e5vH-16" value="BookingStatus (ENUM)" style="swimlane;fontStyle=1;align=center;verticalAlign=top;childLayout=stackLayout;horizontal=1;startSize=26;horizontalStack=0;resizeParent=1;resizeParentMax=0;resizeLast=0;collapsible=1;marginBottom=0;whiteSpace=wrap;html=1;" vertex="1" parent="WIyWlLk6GJQsqaUBKTNV-1">
          <mxGeometry x="449" y="200" width="160" height="88" as="geometry" />
        </mxCell>
        <mxCell id="0yK75cyEjAmp3p56e5vH-17" value="PENDING&amp;nbsp;&lt;div&gt;CONFIRMED&amp;nbsp;&lt;/div&gt;&lt;div&gt;CANCELLED&lt;/div&gt;" style="text;strokeColor=none;fillColor=none;align=left;verticalAlign=top;spacingLeft=4;spacingRight=4;overflow=hidden;rotatable=0;points=[[0,0.5],[1,0.5]];portConstraint=eastwest;whiteSpace=wrap;html=1;" vertex="1" parent="0yK75cyEjAmp3p56e5vH-16">
          <mxGeometry y="26" width="160" height="54" as="geometry" />
        </mxCell>
        <mxCell id="0yK75cyEjAmp3p56e5vH-18" value="" style="line;strokeWidth=1;fillColor=none;align=left;verticalAlign=middle;spacingTop=-1;spacingLeft=3;spacingRight=3;rotatable=0;labelPosition=right;points=[];portConstraint=eastwest;strokeColor=inherit;" vertex="1" parent="0yK75cyEjAmp3p56e5vH-16">
          <mxGeometry y="80" width="160" height="8" as="geometry" />
        </mxCell>
        <mxCell id="0yK75cyEjAmp3p56e5vH-20" value="" style="endArrow=classic;html=1;rounded=0;fontSize=12;startSize=8;endSize=8;curved=1;entryX=0.52;entryY=1;entryDx=0;entryDy=0;entryPerimeter=0;exitX=0.5;exitY=0;exitDx=0;exitDy=0;" edge="1" parent="WIyWlLk6GJQsqaUBKTNV-1" source="0yK75cyEjAmp3p56e5vH-12" target="0yK75cyEjAmp3p56e5vH-7">
          <mxGeometry width="50" height="50" relative="1" as="geometry">
            <mxPoint x="619" y="380" as="sourcePoint" />
            <mxPoint x="669" y="330" as="targetPoint" />
          </mxGeometry>
        </mxCell>
        <mxCell id="0yK75cyEjAmp3p56e5vH-23" value="Booking" style="text;html=1;align=center;verticalAlign=middle;whiteSpace=wrap;rounded=0;fontSize=16;" vertex="1" parent="WIyWlLk6GJQsqaUBKTNV-1">
          <mxGeometry x="39" y="140" width="110" height="30" as="geometry" />
        </mxCell>
        <mxCell id="0yK75cyEjAmp3p56e5vH-25" value="" style="shape=folder;fontStyle=1;spacingTop=10;tabWidth=40;tabHeight=14;tabPosition=left;html=1;whiteSpace=wrap;" vertex="1" parent="WIyWlLk6GJQsqaUBKTNV-1">
          <mxGeometry x="870" y="120" width="721" height="530" as="geometry" />
        </mxCell>
        <mxCell id="0yK75cyEjAmp3p56e5vH-26" value="Transactions" style="text;html=1;align=center;verticalAlign=middle;whiteSpace=wrap;rounded=0;fontSize=16;" vertex="1" parent="WIyWlLk6GJQsqaUBKTNV-1">
          <mxGeometry x="870" y="140" width="140" height="30" as="geometry" />
        </mxCell>
        <mxCell id="0yK75cyEjAmp3p56e5vH-27" value="&lt;p style=&quot;margin:0px;margin-top:4px;text-align:center;&quot;&gt;&lt;b&gt;Transactions (abstract)&lt;/b&gt;&lt;/p&gt;&lt;hr size=&quot;1&quot; style=&quot;border-style:solid;&quot;&gt;&lt;p style=&quot;margin:0px;margin-left:4px;&quot;&gt;&amp;lt;&amp;lt;get/set&amp;gt;&amp;gt; -INT: Transaction ID&lt;/p&gt;&lt;p style=&quot;margin:0px;margin-left:4px;&quot;&gt;&amp;lt;&amp;lt;get/set&amp;gt;&amp;gt; -DOUBLE: Current amount&lt;/p&gt;&lt;p style=&quot;margin:0px;margin-left:4px;&quot;&gt;&amp;lt;&amp;lt;get/set&amp;gt;&amp;gt; -STRING: Transaction date&amp;nbsp;&lt;/p&gt;&lt;hr size=&quot;1&quot; style=&quot;border-style:solid;&quot;&gt;&lt;p style=&quot;margin:0px;margin-left:4px;&quot;&gt;+toString()&lt;/p&gt;&lt;p style=&quot;margin:0px;margin-left:4px;&quot;&gt;&amp;lt;&amp;lt;Constuctor&amp;gt;&amp;gt; +Transaction(INT: Transaction ID, DOUBLE: Current amount, STRING: Transaction Date )&lt;/p&gt;" style="verticalAlign=top;align=left;overflow=fill;html=1;whiteSpace=wrap;" vertex="1" parent="WIyWlLk6GJQsqaUBKTNV-1">
          <mxGeometry x="910" y="190" width="570" height="130" as="geometry" />
        </mxCell>
        <mxCell id="0yK75cyEjAmp3p56e5vH-37" style="edgeStyle=none;curved=1;rounded=0;orthogonalLoop=1;jettySize=auto;html=1;exitX=0.5;exitY=0;exitDx=0;exitDy=0;entryX=0.5;entryY=1;entryDx=0;entryDy=0;fontSize=12;startSize=8;endSize=8;" edge="1" parent="WIyWlLk6GJQsqaUBKTNV-1" source="0yK75cyEjAmp3p56e5vH-28" target="0yK75cyEjAmp3p56e5vH-27">
          <mxGeometry relative="1" as="geometry" />
        </mxCell>
        <mxCell id="0yK75cyEjAmp3p56e5vH-28" value="Withdraw" style="swimlane;fontStyle=1;align=center;verticalAlign=top;childLayout=stackLayout;horizontal=1;startSize=26;horizontalStack=0;resizeParent=1;resizeParentMax=0;resizeLast=0;collapsible=1;marginBottom=0;whiteSpace=wrap;html=1;" vertex="1" parent="WIyWlLk6GJQsqaUBKTNV-1">
          <mxGeometry x="910" y="396" width="160" height="104" as="geometry" />
        </mxCell>
        <mxCell id="0yK75cyEjAmp3p56e5vH-29" value="-DOUBLE: previous withdraw amount" style="text;strokeColor=none;fillColor=none;align=left;verticalAlign=top;spacingLeft=4;spacingRight=4;overflow=hidden;rotatable=0;points=[[0,0.5],[1,0.5]];portConstraint=eastwest;whiteSpace=wrap;html=1;" vertex="1" parent="0yK75cyEjAmp3p56e5vH-28">
          <mxGeometry y="26" width="160" height="44" as="geometry" />
        </mxCell>
        <mxCell id="0yK75cyEjAmp3p56e5vH-30" value="" style="line;strokeWidth=1;fillColor=none;align=left;verticalAlign=middle;spacingTop=-1;spacingLeft=3;spacingRight=3;rotatable=0;labelPosition=right;points=[];portConstraint=eastwest;strokeColor=inherit;" vertex="1" parent="0yK75cyEjAmp3p56e5vH-28">
          <mxGeometry y="70" width="160" height="8" as="geometry" />
        </mxCell>
        <mxCell id="0yK75cyEjAmp3p56e5vH-31" value="+toString" style="text;strokeColor=none;fillColor=none;align=left;verticalAlign=top;spacingLeft=4;spacingRight=4;overflow=hidden;rotatable=0;points=[[0,0.5],[1,0.5]];portConstraint=eastwest;whiteSpace=wrap;html=1;" vertex="1" parent="0yK75cyEjAmp3p56e5vH-28">
          <mxGeometry y="78" width="160" height="26" as="geometry" />
        </mxCell>
        <mxCell id="0yK75cyEjAmp3p56e5vH-116" style="edgeStyle=none;curved=1;rounded=0;orthogonalLoop=1;jettySize=auto;html=1;exitX=0.5;exitY=0;exitDx=0;exitDy=0;entryX=0.75;entryY=1;entryDx=0;entryDy=0;fontSize=12;startSize=8;endSize=8;" edge="1" parent="WIyWlLk6GJQsqaUBKTNV-1" source="0yK75cyEjAmp3p56e5vH-32" target="0yK75cyEjAmp3p56e5vH-27">
          <mxGeometry relative="1" as="geometry" />
        </mxCell>
        <mxCell id="0yK75cyEjAmp3p56e5vH-32" value="Deposit&amp;nbsp;" style="swimlane;fontStyle=1;align=center;verticalAlign=top;childLayout=stackLayout;horizontal=1;startSize=26;horizontalStack=0;resizeParent=1;resizeParentMax=0;resizeLast=0;collapsible=1;marginBottom=0;whiteSpace=wrap;html=1;" vertex="1" parent="WIyWlLk6GJQsqaUBKTNV-1">
          <mxGeometry x="1090" y="396" width="160" height="104" as="geometry" />
        </mxCell>
        <mxCell id="0yK75cyEjAmp3p56e5vH-33" value="-DOUBLE: previous Deposit amount" style="text;strokeColor=none;fillColor=none;align=left;verticalAlign=top;spacingLeft=4;spacingRight=4;overflow=hidden;rotatable=0;points=[[0,0.5],[1,0.5]];portConstraint=eastwest;whiteSpace=wrap;html=1;" vertex="1" parent="0yK75cyEjAmp3p56e5vH-32">
          <mxGeometry y="26" width="160" height="44" as="geometry" />
        </mxCell>
        <mxCell id="0yK75cyEjAmp3p56e5vH-34" value="" style="line;strokeWidth=1;fillColor=none;align=left;verticalAlign=middle;spacingTop=-1;spacingLeft=3;spacingRight=3;rotatable=0;labelPosition=right;points=[];portConstraint=eastwest;strokeColor=inherit;" vertex="1" parent="0yK75cyEjAmp3p56e5vH-32">
          <mxGeometry y="70" width="160" height="8" as="geometry" />
        </mxCell>
        <mxCell id="0yK75cyEjAmp3p56e5vH-35" value="+toString" style="text;strokeColor=none;fillColor=none;align=left;verticalAlign=top;spacingLeft=4;spacingRight=4;overflow=hidden;rotatable=0;points=[[0,0.5],[1,0.5]];portConstraint=eastwest;whiteSpace=wrap;html=1;" vertex="1" parent="0yK75cyEjAmp3p56e5vH-32">
          <mxGeometry y="78" width="160" height="26" as="geometry" />
        </mxCell>
        <mxCell id="0yK75cyEjAmp3p56e5vH-39" value="LoanType ENUM" style="swimlane;fontStyle=0;childLayout=stackLayout;horizontal=1;startSize=26;fillColor=none;horizontalStack=0;resizeParent=1;resizeParentMax=0;resizeLast=0;collapsible=1;marginBottom=0;whiteSpace=wrap;html=1;" vertex="1" parent="WIyWlLk6GJQsqaUBKTNV-1">
          <mxGeometry x="1340" y="378" width="140" height="130" as="geometry" />
        </mxCell>
        <mxCell id="0yK75cyEjAmp3p56e5vH-40" value="None" style="text;strokeColor=none;fillColor=none;align=left;verticalAlign=top;spacingLeft=4;spacingRight=4;overflow=hidden;rotatable=0;points=[[0,0.5],[1,0.5]];portConstraint=eastwest;whiteSpace=wrap;html=1;" vertex="1" parent="0yK75cyEjAmp3p56e5vH-39">
          <mxGeometry y="26" width="140" height="26" as="geometry" />
        </mxCell>
        <mxCell id="0yK75cyEjAmp3p56e5vH-41" value="SmallLoan" style="text;strokeColor=none;fillColor=none;align=left;verticalAlign=top;spacingLeft=4;spacingRight=4;overflow=hidden;rotatable=0;points=[[0,0.5],[1,0.5]];portConstraint=eastwest;whiteSpace=wrap;html=1;" vertex="1" parent="0yK75cyEjAmp3p56e5vH-39">
          <mxGeometry y="52" width="140" height="26" as="geometry" />
        </mxCell>
        <mxCell id="0yK75cyEjAmp3p56e5vH-42" value="LargeLoan" style="text;strokeColor=none;fillColor=none;align=left;verticalAlign=top;spacingLeft=4;spacingRight=4;overflow=hidden;rotatable=0;points=[[0,0.5],[1,0.5]];portConstraint=eastwest;whiteSpace=wrap;html=1;" vertex="1" parent="0yK75cyEjAmp3p56e5vH-39">
          <mxGeometry y="78" width="140" height="26" as="geometry" />
        </mxCell>
        <mxCell id="0yK75cyEjAmp3p56e5vH-43" value="Mortgage" style="text;strokeColor=none;fillColor=none;align=left;verticalAlign=top;spacingLeft=4;spacingRight=4;overflow=hidden;rotatable=0;points=[[0,0.5],[1,0.5]];portConstraint=eastwest;whiteSpace=wrap;html=1;" vertex="1" parent="0yK75cyEjAmp3p56e5vH-39">
          <mxGeometry y="104" width="140" height="26" as="geometry" />
        </mxCell>
        <mxCell id="0yK75cyEjAmp3p56e5vH-44" value="INVALID transaction exception" style="swimlane;fontStyle=0;childLayout=stackLayout;horizontal=1;startSize=26;fillColor=none;horizontalStack=0;resizeParent=1;resizeParentMax=0;resizeLast=0;collapsible=1;marginBottom=0;whiteSpace=wrap;html=1;" vertex="1" parent="WIyWlLk6GJQsqaUBKTNV-1">
          <mxGeometry x="1340" y="540" width="140" height="52" as="geometry" />
        </mxCell>
        <mxCell id="0yK75cyEjAmp3p56e5vH-45" value="+String: Message" style="text;strokeColor=none;fillColor=none;align=left;verticalAlign=top;spacingLeft=4;spacingRight=4;overflow=hidden;rotatable=0;points=[[0,0.5],[1,0.5]];portConstraint=eastwest;whiteSpace=wrap;html=1;" vertex="1" parent="0yK75cyEjAmp3p56e5vH-44">
          <mxGeometry y="26" width="140" height="26" as="geometry" />
        </mxCell>
        <mxCell id="0yK75cyEjAmp3p56e5vH-49" value="" style="shape=folder;fontStyle=1;spacingTop=10;tabWidth=40;tabHeight=14;tabPosition=left;html=1;whiteSpace=wrap;" vertex="1" parent="WIyWlLk6GJQsqaUBKTNV-1">
          <mxGeometry x="870" y="740" width="721" height="530" as="geometry" />
        </mxCell>
        <mxCell id="0yK75cyEjAmp3p56e5vH-99" style="edgeStyle=none;curved=1;rounded=0;orthogonalLoop=1;jettySize=auto;html=1;exitX=0.5;exitY=0;exitDx=0;exitDy=0;entryX=1;entryY=0.5;entryDx=0;entryDy=0;fontSize=12;startSize=8;endSize=8;" edge="1" parent="WIyWlLk6GJQsqaUBKTNV-1" source="0yK75cyEjAmp3p56e5vH-50" target="0yK75cyEjAmp3p56e5vH-56">
          <mxGeometry relative="1" as="geometry" />
        </mxCell>
        <mxCell id="0yK75cyEjAmp3p56e5vH-50" value="ContactINFO" style="swimlane;fontStyle=1;align=center;verticalAlign=top;childLayout=stackLayout;horizontal=1;startSize=26;horizontalStack=0;resizeParent=1;resizeParentMax=0;resizeLast=0;collapsible=1;marginBottom=0;whiteSpace=wrap;html=1;" vertex="1" parent="WIyWlLk6GJQsqaUBKTNV-1">
          <mxGeometry x="329" y="1000" width="400" height="140" as="geometry" />
        </mxCell>
        <mxCell id="0yK75cyEjAmp3p56e5vH-51" value="-STRING: phone&lt;div&gt;#STRING: address[]&lt;/div&gt;&lt;div&gt;#STRING: email&amp;nbsp;&lt;br&gt;&lt;/div&gt;" style="text;strokeColor=none;fillColor=none;align=left;verticalAlign=top;spacingLeft=4;spacingRight=4;overflow=hidden;rotatable=0;points=[[0,0.5],[1,0.5]];portConstraint=eastwest;whiteSpace=wrap;html=1;" vertex="1" parent="0yK75cyEjAmp3p56e5vH-50">
          <mxGeometry y="26" width="400" height="54" as="geometry" />
        </mxCell>
        <mxCell id="0yK75cyEjAmp3p56e5vH-52" value="" style="line;strokeWidth=1;fillColor=none;align=left;verticalAlign=middle;spacingTop=-1;spacingLeft=3;spacingRight=3;rotatable=0;labelPosition=right;points=[];portConstraint=eastwest;strokeColor=inherit;" vertex="1" parent="0yK75cyEjAmp3p56e5vH-50">
          <mxGeometry y="80" width="400" height="8" as="geometry" />
        </mxCell>
        <mxCell id="0yK75cyEjAmp3p56e5vH-53" value="+toString()&lt;div&gt;&amp;lt;&amp;lt;constructor&amp;gt;&amp;gt; ContactINFO(String: phone, String: address)&lt;/div&gt;" style="text;strokeColor=none;fillColor=none;align=left;verticalAlign=top;spacingLeft=4;spacingRight=4;overflow=hidden;rotatable=0;points=[[0,0.5],[1,0.5]];portConstraint=eastwest;whiteSpace=wrap;html=1;" vertex="1" parent="0yK75cyEjAmp3p56e5vH-50">
          <mxGeometry y="88" width="400" height="52" as="geometry" />
        </mxCell>
        <mxCell id="0yK75cyEjAmp3p56e5vH-54" value="Customer" style="text;html=1;align=center;verticalAlign=middle;whiteSpace=wrap;rounded=0;fontSize=16;" vertex="1" parent="WIyWlLk6GJQsqaUBKTNV-1">
          <mxGeometry x="39" y="760" width="91" height="30" as="geometry" />
        </mxCell>
        <mxCell id="0yK75cyEjAmp3p56e5vH-55" value="Person (abstract)" style="swimlane;fontStyle=1;align=center;verticalAlign=top;childLayout=stackLayout;horizontal=1;startSize=26;horizontalStack=0;resizeParent=1;resizeParentMax=0;resizeLast=0;collapsible=1;marginBottom=0;whiteSpace=wrap;html=1;" vertex="1" parent="WIyWlLk6GJQsqaUBKTNV-1">
          <mxGeometry x="60" y="810" width="400" height="130" as="geometry" />
        </mxCell>
        <mxCell id="0yK75cyEjAmp3p56e5vH-56" value="#STRING: name&lt;span style=&quot;background-color: initial;&quot;&gt;&amp;nbsp;&lt;/span&gt;&lt;div&gt;&lt;br&gt;&lt;/div&gt;" style="text;strokeColor=none;fillColor=none;align=left;verticalAlign=top;spacingLeft=4;spacingRight=4;overflow=hidden;rotatable=0;points=[[0,0.5],[1,0.5]];portConstraint=eastwest;whiteSpace=wrap;html=1;" vertex="1" parent="0yK75cyEjAmp3p56e5vH-55">
          <mxGeometry y="26" width="400" height="44" as="geometry" />
        </mxCell>
        <mxCell id="0yK75cyEjAmp3p56e5vH-57" value="" style="line;strokeWidth=1;fillColor=none;align=left;verticalAlign=middle;spacingTop=-1;spacingLeft=3;spacingRight=3;rotatable=0;labelPosition=right;points=[];portConstraint=eastwest;strokeColor=inherit;" vertex="1" parent="0yK75cyEjAmp3p56e5vH-55">
          <mxGeometry y="70" width="400" height="8" as="geometry" />
        </mxCell>
        <mxCell id="0yK75cyEjAmp3p56e5vH-58" value="+toString()&lt;div&gt;&amp;lt;&amp;lt;constructor&amp;gt;&amp;gt; Person(String: name, String: email)&lt;/div&gt;" style="text;strokeColor=none;fillColor=none;align=left;verticalAlign=top;spacingLeft=4;spacingRight=4;overflow=hidden;rotatable=0;points=[[0,0.5],[1,0.5]];portConstraint=eastwest;whiteSpace=wrap;html=1;" vertex="1" parent="0yK75cyEjAmp3p56e5vH-55">
          <mxGeometry y="78" width="400" height="52" as="geometry" />
        </mxCell>
        <mxCell id="0yK75cyEjAmp3p56e5vH-59" value="CustomerID" style="swimlane;fontStyle=1;align=center;verticalAlign=top;childLayout=stackLayout;horizontal=1;startSize=26;horizontalStack=0;resizeParent=1;resizeParentMax=0;resizeLast=0;collapsible=1;marginBottom=0;whiteSpace=wrap;html=1;" vertex="1" parent="WIyWlLk6GJQsqaUBKTNV-1">
          <mxGeometry x="60" y="1150" width="400" height="120" as="geometry" />
        </mxCell>
        <mxCell id="0yK75cyEjAmp3p56e5vH-60" value="-INT: Customer ID&amp;nbsp;&lt;div&gt;&lt;br&gt;&lt;/div&gt;" style="text;strokeColor=none;fillColor=none;align=left;verticalAlign=top;spacingLeft=4;spacingRight=4;overflow=hidden;rotatable=0;points=[[0,0.5],[1,0.5]];portConstraint=eastwest;whiteSpace=wrap;html=1;" vertex="1" parent="0yK75cyEjAmp3p56e5vH-59">
          <mxGeometry y="26" width="400" height="34" as="geometry" />
        </mxCell>
        <mxCell id="0yK75cyEjAmp3p56e5vH-61" value="" style="line;strokeWidth=1;fillColor=none;align=left;verticalAlign=middle;spacingTop=-1;spacingLeft=3;spacingRight=3;rotatable=0;labelPosition=right;points=[];portConstraint=eastwest;strokeColor=inherit;" vertex="1" parent="0yK75cyEjAmp3p56e5vH-59">
          <mxGeometry y="60" width="400" height="8" as="geometry" />
        </mxCell>
        <mxCell id="0yK75cyEjAmp3p56e5vH-62" value="+toString()&lt;div&gt;&amp;lt;&amp;lt;constructor&amp;gt;&amp;gt; Person(INT: Customer ID)&lt;/div&gt;" style="text;strokeColor=none;fillColor=none;align=left;verticalAlign=top;spacingLeft=4;spacingRight=4;overflow=hidden;rotatable=0;points=[[0,0.5],[1,0.5]];portConstraint=eastwest;whiteSpace=wrap;html=1;" vertex="1" parent="0yK75cyEjAmp3p56e5vH-59">
          <mxGeometry y="68" width="400" height="52" as="geometry" />
        </mxCell>
        <mxCell id="0yK75cyEjAmp3p56e5vH-63" value="CustomerType ENUM" style="swimlane;fontStyle=1;align=center;verticalAlign=top;childLayout=stackLayout;horizontal=1;startSize=26;horizontalStack=0;resizeParent=1;resizeParentMax=0;resizeLast=0;collapsible=1;marginBottom=0;whiteSpace=wrap;html=1;" vertex="1" parent="WIyWlLk6GJQsqaUBKTNV-1">
          <mxGeometry x="579" y="890" width="150" height="88" as="geometry" />
        </mxCell>
        <mxCell id="0yK75cyEjAmp3p56e5vH-64" value="&lt;span style=&quot;background-color: initial;&quot;&gt;Individual&lt;/span&gt;&lt;div&gt;&lt;span style=&quot;background-color: initial;&quot;&gt;Company&lt;/span&gt;&lt;/div&gt;&lt;div&gt;&lt;span style=&quot;background-color: initial;&quot;&gt;Couple&amp;nbsp;&lt;/span&gt;&lt;div&gt;&lt;br&gt;&lt;/div&gt;&lt;/div&gt;" style="text;strokeColor=none;fillColor=none;align=left;verticalAlign=top;spacingLeft=4;spacingRight=4;overflow=hidden;rotatable=0;points=[[0,0.5],[1,0.5]];portConstraint=eastwest;whiteSpace=wrap;html=1;" vertex="1" parent="0yK75cyEjAmp3p56e5vH-63">
          <mxGeometry y="26" width="150" height="54" as="geometry" />
        </mxCell>
        <mxCell id="0yK75cyEjAmp3p56e5vH-65" value="" style="line;strokeWidth=1;fillColor=none;align=left;verticalAlign=middle;spacingTop=-1;spacingLeft=3;spacingRight=3;rotatable=0;labelPosition=right;points=[];portConstraint=eastwest;strokeColor=inherit;" vertex="1" parent="0yK75cyEjAmp3p56e5vH-63">
          <mxGeometry y="80" width="150" height="8" as="geometry" />
        </mxCell>
        <mxCell id="0yK75cyEjAmp3p56e5vH-68" value="" style="endArrow=classic;html=1;rounded=0;fontSize=12;startSize=8;endSize=8;curved=1;exitX=0.475;exitY=0;exitDx=0;exitDy=0;exitPerimeter=0;entryX=0.481;entryY=1.038;entryDx=0;entryDy=0;entryPerimeter=0;" edge="1" parent="WIyWlLk6GJQsqaUBKTNV-1" source="0yK75cyEjAmp3p56e5vH-59" target="0yK75cyEjAmp3p56e5vH-58">
          <mxGeometry width="50" height="50" relative="1" as="geometry">
            <mxPoint x="220" y="1160" as="sourcePoint" />
            <mxPoint x="270" y="1110" as="targetPoint" />
          </mxGeometry>
        </mxCell>
        <mxCell id="0yK75cyEjAmp3p56e5vH-69" value="Insurance" style="swimlane;fontStyle=1;align=center;verticalAlign=top;childLayout=stackLayout;horizontal=1;startSize=26;horizontalStack=0;resizeParent=1;resizeParentMax=0;resizeLast=0;collapsible=1;marginBottom=0;whiteSpace=wrap;html=1;" vertex="1" parent="WIyWlLk6GJQsqaUBKTNV-1">
          <mxGeometry x="930" y="800" width="230" height="114" as="geometry" />
        </mxCell>
        <mxCell id="0yK75cyEjAmp3p56e5vH-70" value="-INT: Insurance ID&lt;div&gt;&amp;lt;&amp;lt;get/set&amp;gt;&amp;gt; +STRING: Policy NO&lt;/div&gt;&lt;div&gt;&amp;lt;&amp;lt;get/set&amp;gt;&amp;gt; +STRING: Coverage&lt;/div&gt;" style="text;strokeColor=none;fillColor=none;align=left;verticalAlign=top;spacingLeft=4;spacingRight=4;overflow=hidden;rotatable=0;points=[[0,0.5],[1,0.5]];portConstraint=eastwest;whiteSpace=wrap;html=1;" vertex="1" parent="0yK75cyEjAmp3p56e5vH-69">
          <mxGeometry y="26" width="230" height="54" as="geometry" />
        </mxCell>
        <mxCell id="0yK75cyEjAmp3p56e5vH-71" value="" style="line;strokeWidth=1;fillColor=none;align=left;verticalAlign=middle;spacingTop=-1;spacingLeft=3;spacingRight=3;rotatable=0;labelPosition=right;points=[];portConstraint=eastwest;strokeColor=inherit;" vertex="1" parent="0yK75cyEjAmp3p56e5vH-69">
          <mxGeometry y="80" width="230" height="8" as="geometry" />
        </mxCell>
        <mxCell id="0yK75cyEjAmp3p56e5vH-72" value="+toString" style="text;strokeColor=none;fillColor=none;align=left;verticalAlign=top;spacingLeft=4;spacingRight=4;overflow=hidden;rotatable=0;points=[[0,0.5],[1,0.5]];portConstraint=eastwest;whiteSpace=wrap;html=1;" vertex="1" parent="0yK75cyEjAmp3p56e5vH-69">
          <mxGeometry y="88" width="230" height="26" as="geometry" />
        </mxCell>
        <mxCell id="0yK75cyEjAmp3p56e5vH-73" value="Claim" style="swimlane;fontStyle=1;align=center;verticalAlign=top;childLayout=stackLayout;horizontal=1;startSize=26;horizontalStack=0;resizeParent=1;resizeParentMax=0;resizeLast=0;collapsible=1;marginBottom=0;whiteSpace=wrap;html=1;" vertex="1" parent="WIyWlLk6GJQsqaUBKTNV-1">
          <mxGeometry x="920" y="1012" width="370" height="140" as="geometry" />
        </mxCell>
        <mxCell id="0yK75cyEjAmp3p56e5vH-74" value="&amp;lt;&amp;lt;get/set&amp;gt;&amp;gt; - INT: Claim ID&lt;div&gt;&amp;lt;&amp;lt;get/set&amp;gt;&amp;gt; - Double ClaimAmount&lt;/div&gt;" style="text;strokeColor=none;fillColor=none;align=left;verticalAlign=top;spacingLeft=4;spacingRight=4;overflow=hidden;rotatable=0;points=[[0,0.5],[1,0.5]];portConstraint=eastwest;whiteSpace=wrap;html=1;" vertex="1" parent="0yK75cyEjAmp3p56e5vH-73">
          <mxGeometry y="26" width="370" height="44" as="geometry" />
        </mxCell>
        <mxCell id="0yK75cyEjAmp3p56e5vH-75" value="" style="line;strokeWidth=1;fillColor=none;align=left;verticalAlign=middle;spacingTop=-1;spacingLeft=3;spacingRight=3;rotatable=0;labelPosition=right;points=[];portConstraint=eastwest;strokeColor=inherit;" vertex="1" parent="0yK75cyEjAmp3p56e5vH-73">
          <mxGeometry y="70" width="370" height="8" as="geometry" />
        </mxCell>
        <mxCell id="0yK75cyEjAmp3p56e5vH-76" value="+toString&lt;div&gt;&amp;lt;&amp;lt;constructor&amp;gt;&amp;gt; Claim(INT: Claim ID, Double: Claim amount)&amp;nbsp;&lt;/div&gt;" style="text;strokeColor=none;fillColor=none;align=left;verticalAlign=top;spacingLeft=4;spacingRight=4;overflow=hidden;rotatable=0;points=[[0,0.5],[1,0.5]];portConstraint=eastwest;whiteSpace=wrap;html=1;" vertex="1" parent="0yK75cyEjAmp3p56e5vH-73">
          <mxGeometry y="78" width="370" height="62" as="geometry" />
        </mxCell>
        <mxCell id="0yK75cyEjAmp3p56e5vH-77" value="PolicyType ENUM" style="swimlane;fontStyle=0;childLayout=stackLayout;horizontal=1;startSize=26;fillColor=none;horizontalStack=0;resizeParent=1;resizeParentMax=0;resizeLast=0;collapsible=1;marginBottom=0;whiteSpace=wrap;html=1;" vertex="1" parent="WIyWlLk6GJQsqaUBKTNV-1">
          <mxGeometry x="1210" y="798" width="140" height="104" as="geometry" />
        </mxCell>
        <mxCell id="0yK75cyEjAmp3p56e5vH-78" value="LIFE" style="text;strokeColor=none;fillColor=none;align=left;verticalAlign=top;spacingLeft=4;spacingRight=4;overflow=hidden;rotatable=0;points=[[0,0.5],[1,0.5]];portConstraint=eastwest;whiteSpace=wrap;html=1;" vertex="1" parent="0yK75cyEjAmp3p56e5vH-77">
          <mxGeometry y="26" width="140" height="26" as="geometry" />
        </mxCell>
        <mxCell id="0yK75cyEjAmp3p56e5vH-79" value="HEALTH" style="text;strokeColor=none;fillColor=none;align=left;verticalAlign=top;spacingLeft=4;spacingRight=4;overflow=hidden;rotatable=0;points=[[0,0.5],[1,0.5]];portConstraint=eastwest;whiteSpace=wrap;html=1;" vertex="1" parent="0yK75cyEjAmp3p56e5vH-77">
          <mxGeometry y="52" width="140" height="26" as="geometry" />
        </mxCell>
        <mxCell id="0yK75cyEjAmp3p56e5vH-80" value="TRAVEL" style="text;strokeColor=none;fillColor=none;align=left;verticalAlign=top;spacingLeft=4;spacingRight=4;overflow=hidden;rotatable=0;points=[[0,0.5],[1,0.5]];portConstraint=eastwest;whiteSpace=wrap;html=1;" vertex="1" parent="0yK75cyEjAmp3p56e5vH-77">
          <mxGeometry y="78" width="140" height="26" as="geometry" />
        </mxCell>
        <mxCell id="0yK75cyEjAmp3p56e5vH-81" value="INVALIDInsuranceExeption" style="swimlane;fontStyle=0;childLayout=stackLayout;horizontal=1;startSize=26;fillColor=none;horizontalStack=0;resizeParent=1;resizeParentMax=0;resizeLast=0;collapsible=1;marginBottom=0;whiteSpace=wrap;html=1;" vertex="1" parent="WIyWlLk6GJQsqaUBKTNV-1">
          <mxGeometry x="1380" y="960" width="160" height="52" as="geometry" />
        </mxCell>
        <mxCell id="0yK75cyEjAmp3p56e5vH-82" value="+String: Message" style="text;strokeColor=none;fillColor=none;align=left;verticalAlign=top;spacingLeft=4;spacingRight=4;overflow=hidden;rotatable=0;points=[[0,0.5],[1,0.5]];portConstraint=eastwest;whiteSpace=wrap;html=1;" vertex="1" parent="0yK75cyEjAmp3p56e5vH-81">
          <mxGeometry y="26" width="160" height="26" as="geometry" />
        </mxCell>
        <mxCell id="0yK75cyEjAmp3p56e5vH-86" value="Insurance" style="text;html=1;align=center;verticalAlign=middle;whiteSpace=wrap;rounded=0;fontSize=16;" vertex="1" parent="WIyWlLk6GJQsqaUBKTNV-1">
          <mxGeometry x="870" y="760" width="90" height="30" as="geometry" />
        </mxCell>
        <mxCell id="0yK75cyEjAmp3p56e5vH-88" value="" style="endArrow=none;html=1;edgeStyle=orthogonalEdgeStyle;rounded=0;fontSize=12;startSize=8;endSize=8;curved=1;entryX=0;entryY=0.5;entryDx=0;entryDy=0;exitX=1;exitY=0.5;exitDx=0;exitDy=0;" edge="1" parent="WIyWlLk6GJQsqaUBKTNV-1" source="0yK75cyEjAmp3p56e5vH-13" target="0yK75cyEjAmp3p56e5vH-9">
          <mxGeometry relative="1" as="geometry">
            <mxPoint x="-110" y="420" as="sourcePoint" />
            <mxPoint x="-30" y="420" as="targetPoint" />
          </mxGeometry>
        </mxCell>
        <mxCell id="0yK75cyEjAmp3p56e5vH-89" value="&amp;nbsp; 1" style="edgeLabel;resizable=0;html=1;align=left;verticalAlign=bottom;" connectable="0" vertex="1" parent="0yK75cyEjAmp3p56e5vH-88">
          <mxGeometry x="-1" relative="1" as="geometry" />
        </mxCell>
        <mxCell id="0yK75cyEjAmp3p56e5vH-90" value="*&amp;nbsp;&amp;nbsp;" style="edgeLabel;resizable=0;html=1;align=right;verticalAlign=bottom;" connectable="0" vertex="1" parent="0yK75cyEjAmp3p56e5vH-88">
          <mxGeometry x="1" relative="1" as="geometry" />
        </mxCell>
        <mxCell id="0yK75cyEjAmp3p56e5vH-91" value="" style="endArrow=none;html=1;edgeStyle=orthogonalEdgeStyle;rounded=0;fontSize=12;startSize=8;endSize=8;curved=1;entryX=0.5;entryY=0;entryDx=0;entryDy=0;exitX=1.001;exitY=0.4;exitDx=0;exitDy=0;exitPerimeter=0;" edge="1" parent="WIyWlLk6GJQsqaUBKTNV-1" source="0yK75cyEjAmp3p56e5vH-7" target="0yK75cyEjAmp3p56e5vH-8">
          <mxGeometry relative="1" as="geometry">
            <mxPoint x="310" y="340" as="sourcePoint" />
            <mxPoint x="470" y="340" as="targetPoint" />
            <Array as="points">
              <mxPoint x="400" y="319" />
              <mxPoint x="400" y="320" />
              <mxPoint x="490" y="320" />
            </Array>
          </mxGeometry>
        </mxCell>
        <mxCell id="0yK75cyEjAmp3p56e5vH-92" value="&amp;nbsp; &amp;nbsp; 1" style="edgeLabel;resizable=0;html=1;align=left;verticalAlign=bottom;" connectable="0" vertex="1" parent="0yK75cyEjAmp3p56e5vH-91">
          <mxGeometry x="-1" relative="1" as="geometry" />
        </mxCell>
        <mxCell id="0yK75cyEjAmp3p56e5vH-93" value="*&amp;nbsp;&amp;nbsp;" style="edgeLabel;resizable=0;html=1;align=right;verticalAlign=bottom;" connectable="0" vertex="1" parent="0yK75cyEjAmp3p56e5vH-91">
          <mxGeometry x="1" relative="1" as="geometry" />
        </mxCell>
        <mxCell id="0yK75cyEjAmp3p56e5vH-98" style="edgeStyle=none;curved=1;rounded=0;orthogonalLoop=1;jettySize=auto;html=1;exitX=0.5;exitY=0;exitDx=0;exitDy=0;fontSize=12;startSize=8;endSize=8;" edge="1" parent="WIyWlLk6GJQsqaUBKTNV-1" source="0yK75cyEjAmp3p56e5vH-63" target="0yK75cyEjAmp3p56e5vH-63">
          <mxGeometry relative="1" as="geometry" />
        </mxCell>
        <mxCell id="0yK75cyEjAmp3p56e5vH-101" value="" style="endArrow=none;html=1;edgeStyle=orthogonalEdgeStyle;rounded=0;fontSize=12;startSize=8;endSize=8;curved=1;entryX=0.126;entryY=1.058;entryDx=0;entryDy=0;entryPerimeter=0;exitX=0.25;exitY=0;exitDx=0;exitDy=0;" edge="1" parent="WIyWlLk6GJQsqaUBKTNV-1" source="0yK75cyEjAmp3p56e5vH-55" target="0yK75cyEjAmp3p56e5vH-7">
          <mxGeometry relative="1" as="geometry">
            <mxPoint x="330" y="470" as="sourcePoint" />
            <mxPoint x="490" y="470" as="targetPoint" />
            <Array as="points">
              <mxPoint x="160" y="580" />
              <mxPoint x="100" y="580" />
              <mxPoint x="100" y="353" />
            </Array>
          </mxGeometry>
        </mxCell>
        <mxCell id="0yK75cyEjAmp3p56e5vH-104" value="*" style="edgeLabel;html=1;align=center;verticalAlign=middle;resizable=0;points=[];fontSize=12;" vertex="1" connectable="0" parent="0yK75cyEjAmp3p56e5vH-101">
          <mxGeometry x="0.877" relative="1" as="geometry">
            <mxPoint x="10" y="-22" as="offset" />
          </mxGeometry>
        </mxCell>
        <mxCell id="0yK75cyEjAmp3p56e5vH-105" value="1" style="edgeLabel;html=1;align=center;verticalAlign=middle;resizable=0;points=[];fontSize=12;" vertex="1" connectable="0" parent="0yK75cyEjAmp3p56e5vH-101">
          <mxGeometry x="-0.9385" y="-2" relative="1" as="geometry">
            <mxPoint x="8" as="offset" />
          </mxGeometry>
        </mxCell>
        <mxCell id="0yK75cyEjAmp3p56e5vH-106" value="" style="endArrow=none;html=1;edgeStyle=orthogonalEdgeStyle;rounded=0;fontSize=12;startSize=8;endSize=8;curved=1;entryX=0;entryY=0.5;entryDx=0;entryDy=0;" edge="1" parent="WIyWlLk6GJQsqaUBKTNV-1" source="0yK75cyEjAmp3p56e5vH-56" target="0yK75cyEjAmp3p56e5vH-70">
          <mxGeometry relative="1" as="geometry">
            <mxPoint x="630" y="670" as="sourcePoint" />
            <mxPoint x="790" y="670" as="targetPoint" />
          </mxGeometry>
        </mxCell>
        <mxCell id="0yK75cyEjAmp3p56e5vH-107" value="&amp;nbsp;1" style="edgeLabel;resizable=0;html=1;align=left;verticalAlign=bottom;" connectable="0" vertex="1" parent="0yK75cyEjAmp3p56e5vH-106">
          <mxGeometry x="-1" relative="1" as="geometry" />
        </mxCell>
        <mxCell id="0yK75cyEjAmp3p56e5vH-108" value="*&amp;nbsp; &amp;nbsp;" style="edgeLabel;resizable=0;html=1;align=right;verticalAlign=bottom;" connectable="0" vertex="1" parent="0yK75cyEjAmp3p56e5vH-106">
          <mxGeometry x="1" relative="1" as="geometry" />
        </mxCell>
        <mxCell id="0yK75cyEjAmp3p56e5vH-109" value="" style="endArrow=none;html=1;edgeStyle=orthogonalEdgeStyle;rounded=0;fontSize=12;startSize=8;endSize=8;curved=1;entryX=0;entryY=0.5;entryDx=0;entryDy=0;exitX=1;exitY=0.123;exitDx=0;exitDy=0;exitPerimeter=0;" edge="1" parent="WIyWlLk6GJQsqaUBKTNV-1" source="0yK75cyEjAmp3p56e5vH-55" target="0yK75cyEjAmp3p56e5vH-27">
          <mxGeometry relative="1" as="geometry">
            <mxPoint x="630" y="470" as="sourcePoint" />
            <mxPoint x="790" y="470" as="targetPoint" />
            <Array as="points">
              <mxPoint x="800" y="826" />
              <mxPoint x="800" y="255" />
            </Array>
          </mxGeometry>
        </mxCell>
        <mxCell id="0yK75cyEjAmp3p56e5vH-110" value="&amp;nbsp;1" style="edgeLabel;resizable=0;html=1;align=left;verticalAlign=bottom;" connectable="0" vertex="1" parent="0yK75cyEjAmp3p56e5vH-109">
          <mxGeometry x="-1" relative="1" as="geometry" />
        </mxCell>
        <mxCell id="0yK75cyEjAmp3p56e5vH-111" value="*&amp;nbsp; &amp;nbsp;" style="edgeLabel;resizable=0;html=1;align=right;verticalAlign=bottom;" connectable="0" vertex="1" parent="0yK75cyEjAmp3p56e5vH-109">
          <mxGeometry x="1" relative="1" as="geometry" />
        </mxCell>
        <mxCell id="0yK75cyEjAmp3p56e5vH-112" value="" style="endArrow=none;html=1;edgeStyle=orthogonalEdgeStyle;rounded=0;fontSize=12;startSize=8;endSize=8;curved=1;exitX=1;exitY=0.5;exitDx=0;exitDy=0;entryX=0.75;entryY=0;entryDx=0;entryDy=0;" edge="1" parent="WIyWlLk6GJQsqaUBKTNV-1" source="0yK75cyEjAmp3p56e5vH-70" target="0yK75cyEjAmp3p56e5vH-73">
          <mxGeometry relative="1" as="geometry">
            <mxPoint x="980" y="1020" as="sourcePoint" />
            <mxPoint x="1140" y="1020" as="targetPoint" />
          </mxGeometry>
        </mxCell>
        <mxCell id="0yK75cyEjAmp3p56e5vH-113" value="&amp;nbsp; 1" style="edgeLabel;resizable=0;html=1;align=left;verticalAlign=bottom;" connectable="0" vertex="1" parent="0yK75cyEjAmp3p56e5vH-112">
          <mxGeometry x="-1" relative="1" as="geometry" />
        </mxCell>
        <mxCell id="0yK75cyEjAmp3p56e5vH-114" value="*&amp;nbsp; &amp;nbsp;" style="edgeLabel;resizable=0;html=1;align=right;verticalAlign=bottom;" connectable="0" vertex="1" parent="0yK75cyEjAmp3p56e5vH-112">
          <mxGeometry x="1" relative="1" as="geometry">
            <mxPoint x="-7" y="-22" as="offset" />
          </mxGeometry>
        </mxCell>
        <mxCell id="0yK75cyEjAmp3p56e5vH-115" style="edgeStyle=none;curved=1;rounded=0;orthogonalLoop=1;jettySize=auto;html=1;exitX=0.75;exitY=0;exitDx=0;exitDy=0;fontSize=12;startSize=8;endSize=8;" edge="1" parent="WIyWlLk6GJQsqaUBKTNV-1" source="0yK75cyEjAmp3p56e5vH-44" target="0yK75cyEjAmp3p56e5vH-44">
          <mxGeometry relative="1" as="geometry" />
        </mxCell>
        <mxCell id="0yK75cyEjAmp3p56e5vH-117" value="«interface»&lt;br&gt;&lt;div&gt;Taxable&amp;nbsp;&lt;/div&gt;&lt;div&gt;DOUBLE:: CALCTAX&lt;/div&gt;" style="html=1;whiteSpace=wrap;" vertex="1" parent="WIyWlLk6GJQsqaUBKTNV-1">
          <mxGeometry x="910" y="535" width="180" height="50" as="geometry" />
        </mxCell>
        <mxCell id="0yK75cyEjAmp3p56e5vH-118" value="«interface»&lt;br&gt;&lt;div&gt;Taxable&amp;nbsp;&lt;/div&gt;&lt;div&gt;DOUBLE:: CALCAmount&lt;/div&gt;" style="html=1;whiteSpace=wrap;" vertex="1" parent="WIyWlLk6GJQsqaUBKTNV-1">
          <mxGeometry x="910" y="535" width="180" height="50" as="geometry" />
        </mxCell>
        <mxCell id="0yK75cyEjAmp3p56e5vH-119" value="«interface»&lt;br&gt;&lt;div&gt;Taxable&amp;nbsp;&lt;/div&gt;&lt;div&gt;DOUBLE:: CALCTAX&lt;/div&gt;" style="html=1;whiteSpace=wrap;" vertex="1" parent="WIyWlLk6GJQsqaUBKTNV-1">
          <mxGeometry x="1360" y="1080" width="180" height="50" as="geometry" />
        </mxCell>
        <mxCell id="0yK75cyEjAmp3p56e5vH-120" value="Loan" style="swimlane;fontStyle=1;align=center;verticalAlign=top;childLayout=stackLayout;horizontal=1;startSize=26;horizontalStack=0;resizeParent=1;resizeParentMax=0;resizeLast=0;collapsible=1;marginBottom=0;whiteSpace=wrap;html=1;" vertex="1" parent="WIyWlLk6GJQsqaUBKTNV-1">
          <mxGeometry x="1120" y="535" width="160" height="86" as="geometry" />
        </mxCell>
        <mxCell id="0yK75cyEjAmp3p56e5vH-121" value="-INT: Loan Amount&amp;nbsp;" style="text;strokeColor=none;fillColor=none;align=left;verticalAlign=top;spacingLeft=4;spacingRight=4;overflow=hidden;rotatable=0;points=[[0,0.5],[1,0.5]];portConstraint=eastwest;whiteSpace=wrap;html=1;" vertex="1" parent="0yK75cyEjAmp3p56e5vH-120">
          <mxGeometry y="26" width="160" height="26" as="geometry" />
        </mxCell>
        <mxCell id="0yK75cyEjAmp3p56e5vH-122" value="" style="line;strokeWidth=1;fillColor=none;align=left;verticalAlign=middle;spacingTop=-1;spacingLeft=3;spacingRight=3;rotatable=0;labelPosition=right;points=[];portConstraint=eastwest;strokeColor=inherit;" vertex="1" parent="0yK75cyEjAmp3p56e5vH-120">
          <mxGeometry y="52" width="160" height="8" as="geometry" />
        </mxCell>
        <mxCell id="0yK75cyEjAmp3p56e5vH-123" value="+ method(type): type" style="text;strokeColor=none;fillColor=none;align=left;verticalAlign=top;spacingLeft=4;spacingRight=4;overflow=hidden;rotatable=0;points=[[0,0.5],[1,0.5]];portConstraint=eastwest;whiteSpace=wrap;html=1;" vertex="1" parent="0yK75cyEjAmp3p56e5vH-120">
          <mxGeometry y="60" width="160" height="26" as="geometry" />
        </mxCell>
      </root>
    </mxGraphModel>
  </diagram>
</mxfile>
